HIERARCHY
ROOT Pelvis
{
	OFFSET 0.000000 0.000000 0.000000
	CHANNELS 6 Xposition Yposition Zposition Xrotation Yrotation Zrotation
	JOINT LeftUpLeg_virtual
	{
		OFFSET 0.000000 0.000000 0.000000
		CHANNELS 3 Xrotation Yrotation Zrotation
		JOINT LeftUpLeg
		{
			OFFSET 18.735201 -5.666702 -4.541200
			CHANNELS 3 Xrotation Yrotation Zrotation
			JOINT LeftLeg
			{
				OFFSET -0.021200 -31.938179 0.493100
				CHANNELS 3 Xrotation Yrotation Zrotation
				JOINT LeftFoot
				{
					OFFSET 0.021200 -31.938179 -4.336299
					CHANNELS 3 Xrotation Yrotation Zrotation
					JOINT LeftToeBase
					{
						OFFSET 0.943001 -26.722000 15.023500
						CHANNELS 3 Xrotation Yrotation Zrotation
						End Site
						{
							OFFSET 0 0 0
						}
					}
				}
			}
		}
	}
	JOINT RightUpLeg_virtual
	{
		OFFSET 0.000000 0.000000 0.000000
		CHANNELS 3 Xrotation Yrotation Zrotation
		JOINT RightUpLeg
		{
			OFFSET -18.735201 -5.666702 -4.541200
			CHANNELS 3 Xrotation Yrotation Zrotation
			JOINT RightLeg
			{
				OFFSET 0.018946 -31.938133 0.493100
				CHANNELS 3 Xrotation Yrotation Zrotation
				JOINT RightFoot
				{
					OFFSET -0.018946 -31.938126 -4.336299
					CHANNELS 3 Xrotation Yrotation Zrotation
					JOINT RightToeBase
					{
						OFFSET -0.943001 -26.722004 15.023500
						CHANNELS 3 Xrotation Yrotation Zrotation
						End Site
						{
							OFFSET 0 0 0
						}
					}
				}
			}
		}
	}
	JOINT Hips_virtual
	{
		OFFSET 0.000000 0.000000 0.000000
		CHANNELS 3 Xrotation Yrotation Zrotation
		JOINT Hips
		{
			OFFSET -0.000000 -0.000000 -0.000000
			CHANNELS 3 Xrotation Yrotation Zrotation
			JOINT Spine
			{
				OFFSET 0.000000 10.199997 -0.299500
				CHANNELS 3 Xrotation Yrotation Zrotation
				JOINT Spine1
				{
					OFFSET 0.000000 11.900002 -1.516600
					CHANNELS 3 Xrotation Yrotation Zrotation
					JOINT Spine2
					{
						OFFSET 0.000000 13.600006 -2.842500
						CHANNELS 3 Xrotation Yrotation Zrotation
						JOINT Neck_virtual
						{
							OFFSET 0.000000 0.000000 0.000000
							CHANNELS 3 Xrotation Yrotation Zrotation
							JOINT Neck
							{
								OFFSET 0.000000 9.624100 -2.890100
								CHANNELS 3 Xrotation Yrotation Zrotation
								JOINT Head
								{
									OFFSET 0.000000 14.068802 -1.351900
									CHANNELS 3 Xrotation Yrotation Zrotation
									End Site
									{
										OFFSET 0 0 0
									}
								}
							}
						}
						JOINT LeftShoulder_virtual
						{
							OFFSET 0.000000 0.000000 0.000000
							CHANNELS 3 Xrotation Yrotation Zrotation
							JOINT LeftShoulder
							{
								OFFSET 15.263000 10.923401 -0.547700
								CHANNELS 3 Xrotation Yrotation Zrotation
								JOINT LeftArm
								{
									OFFSET 25.438599 -2.830597 -13.032500
									CHANNELS 3 Xrotation Yrotation Zrotation
									JOINT LeftForeArm
									{
										OFFSET 29.960503 0.000000 0.000000
										CHANNELS 3 Xrotation Yrotation Zrotation
										JOINT LeftHand
										{
											OFFSET 27.849251 0.000000 0.000000
											CHANNELS 3 Xrotation Yrotation Zrotation
											End Site
											{
												OFFSET 0 0 0
											}
										}
									}
								}
							}
						}
						JOINT RightShoulder_virtual
						{
							OFFSET 0.000000 0.000000 0.000000
							CHANNELS 3 Xrotation Yrotation Zrotation
							JOINT RightShoulder
							{
								OFFSET -15.263000 10.923401 -0.547700
								CHANNELS 3 Xrotation Yrotation Zrotation
								JOINT RightArm
								{
									OFFSET -25.438599 -2.830597 -13.032500
									CHANNELS 3 Xrotation Yrotation Zrotation
									JOINT RightForeArm
									{
										OFFSET -29.960503 0.000000 0.000000
										CHANNELS 3 Xrotation Yrotation Zrotation
										JOINT RightHand
										{
											OFFSET -27.849251 0.000000 0.000000
											CHANNELS 3 Xrotation Yrotation Zrotation
											End Site
											{
												OFFSET 0 0 0
											}
										}
									}
								}
							}
						}
					}
				}
			}
		}
	}
}
MOTION
Frames: 8
Frame Time: 0.03333333
-4.116100 83.842392 2.130346 0.000000 0.000000 0.000000 4.733692 -53.013579 4.391866 -43.580234 8.176659 33.376689 43.436619 -10.584730 -12.699252 -12.184157 -3.041871 -8.741126 0.000000 0.000000 0.000000 4.880299 -52.365660 4.151030 -23.982582 -13.832993 -25.789367 51.242740 6.490371 2.009456 -40.355920 -4.088665 13.713962 0.000000 0.000000 0.000000 4.799930 -52.856361 4.383428 -2.943784 -1.923085 -0.105442 12.738522 2.904473 -0.133457 -5.890122 5.212158 -2.707623 0.000000 0.000000 0.000000 -0.821894 5.112188 -2.955043 -2.862666 8.620784 4.018085 0.000000 0.000000 0.000000 0.909626 4.713526 -3.235565 -29.037511 5.374565 3.082207 20.477431 -20.269145 -42.163803 -6.155194 -57.746620 -2.396680 0.000000 0.000000 0.000000 -1.082264 4.949138 -2.848817 -1.150260 9.911393 10.661866 9.010868 9.343689 54.296415 -10.727447 66.124421 16.042528 0.000000 0.000000 0.000000 
-4.234320 83.842354 2.151770 0.000000 0.000000 0.000000 4.855904 -53.055475 4.604143 -43.653074 7.968945 33.299334 43.364813 -10.571360 -12.590287 -12.210164 -3.062395 -8.717862 0.000000 0.000000 0.000000 4.953732 -52.357949 4.344214 -24.430557 -14.171344 -25.941361 51.995812 6.441286 2.113992 -40.732830 -4.140863 13.814487 0.000000 0.000000 0.000000 4.980807 -52.837852 4.592191 -2.988311 -2.015612 -0.369376 13.121492 3.182845 -0.316428 -5.913293 5.365674 -2.763774 0.000000 0.000000 0.000000 -0.874534 5.250515 -3.070342 -2.848101 8.597645 3.934572 0.000000 0.000000 0.000000 1.015456 4.864773 -3.335037 -29.150452 5.641513 3.285224 20.963944 -20.214940 -42.311082 -5.853290 -57.402897 -2.326624 0.000000 0.000000 0.000000 -1.081676 5.110774 -2.956904 -1.117533 9.999164 10.785492 8.602780 10.384091 54.369368 -10.881430 66.713627 15.749749 0.000000 0.000000 0.000000 
-4.327955 83.919304 2.249102 0.000000 0.000000 0.000000 5.172790 -53.148980 5.098615 -43.805756 7.697808 33.022418 43.229070 -10.366960 -12.381415 -11.918963 -3.127709 -8.131073 0.000000 0.000000 0.000000 5.200533 -52.335201 4.851753 -24.848950 -14.221033 -26.024829 52.730655 6.447921 1.957220 -41.356331 -4.286531 14.295128 0.000000 0.000000 0.000000 5.287354 -52.766978 5.082185 -3.118046 -1.834083 -0.551964 13.543115 3.469289 -0.639190 -6.025656 5.557379 -2.701155 0.000000 0.000000 0.000000 -0.895302 5.478904 -3.144452 -2.692644 8.580785 3.807722 0.000000 0.000000 0.000000 0.952012 5.095772 -3.335542 -29.277852 5.232378 3.703819 22.819949 -20.289596 -42.043615 -5.552082 -57.259873 -2.264692 0.000000 0.000000 0.000000 -1.137346 5.336875 -2.943171 -0.837733 9.925526 11.027894 8.621332 11.028821 53.976741 -11.141271 67.952316 15.325759 0.000000 0.000000 0.000000 
-4.467198 84.051308 2.340618 0.000000 0.000000 0.000000 5.581377 -53.122449 5.705728 -44.102750 7.369229 32.551780 42.968239 -10.027261 -12.066948 -11.266484 -3.348710 -7.269000 0.000000 0.000000 0.000000 5.563968 -52.256886 5.525272 -25.127059 -13.907561 -25.902027 53.382146 6.606164 1.558759 -41.787835 -4.510194 15.143889 0.000000 0.000000 0.000000 5.575724 -52.567482 5.631341 -3.108305 -1.633176 -0.257608 13.886802 3.636883 -0.948257 -6.150178 5.694812 -2.552483 0.000000 0.000000 0.000000 -0.881356 5.667953 -3.146708 -2.459658 8.575618 3.677601 0.000000 0.000000 0.000000 0.803071 5.289154 -3.247293 -29.332452 4.154208 4.117354 25.505224 -20.662366 -41.696519 -5.177271 -56.630219 -2.026130 0.000000 0.000000 0.000000 -1.175101 5.511445 -2.844650 -0.271622 9.672461 11.125017 8.880303 11.523510 53.573856 -11.127651 69.307596 14.476943 0.000000 0.000000 0.000000 
-4.658570 84.218513 2.373785 0.000000 0.000000 0.000000 5.916682 -52.819099 6.200113 -44.602211 7.003745 32.004374 42.759761 -9.656178 -11.662701 -10.257669 -3.770912 -6.481469 0.000000 0.000000 0.000000 5.889536 -52.005211 6.065668 -25.275349 -13.464476 -25.520078 54.054783 6.825636 1.079894 -41.898279 -4.899602 15.921487 0.000000 0.000000 0.000000 5.808571 -52.248785 6.069224 -3.010567 -1.371590 0.135694 14.058498 3.584380 -1.068564 -6.278109 5.718251 -2.390988 0.000000 0.000000 0.000000 -0.853413 5.698422 -3.080020 -2.239855 8.577959 3.578570 0.000000 0.000000 0.000000 0.698132 5.327406 -3.117759 -29.295081 2.675267 4.383231 28.511643 -21.482403 -41.477526 -4.779628 -54.649675 -1.569904 0.000000 0.000000 0.000000 -1.199482 5.534590 -2.730508 0.554772 9.253802 10.804827 8.820569 12.234027 53.570564 -10.471687 70.292134 12.826579 0.000000 0.000000 0.000000 
-4.933875 84.374672 2.339691 0.000000 0.000000 0.000000 6.161839 -52.198495 6.458958 -45.254317 6.558449 31.558247 42.808088 -9.316556 -11.178790 -9.136550 -4.399262 -6.016434 0.000000 0.000000 0.000000 6.026053 -51.481714 6.227211 -25.293423 -13.158540 -24.845628 54.678222 6.971868 0.693680 -41.975010 -5.567246 16.189987 0.000000 0.000000 0.000000 5.992523 -51.758675 6.289222 -3.002338 -1.061641 0.513757 14.099715 3.252320 -0.878880 -6.348833 5.570248 -2.274205 0.000000 0.000000 0.000000 -0.826092 5.525655 -2.986671 -2.123933 8.578887 3.531199 0.000000 0.000000 0.000000 0.673314 5.148784 -3.013518 -29.222862 0.925174 4.281425 31.353830 -22.438336 -41.491316 -4.351747 -50.822628 -0.890426 0.000000 0.000000 0.000000 -1.186767 5.367096 -2.655806 1.598559 8.722082 9.927383 8.045839 13.528268 54.149665 -8.937276 70.611534 10.236694 0.000000 0.000000 0.000000 
-5.249903 84.496155 2.326279 0.000000 0.000000 0.000000 6.371942 -51.369334 6.515364 -45.895890 6.007934 31.292857 43.278025 -9.039538 -10.623628 -8.257543 -5.229636 -5.924442 0.000000 0.000000 0.000000 6.108822 -50.748630 6.152891 -25.011670 -12.888192 -23.762003 55.018741 7.032203 0.362386 -42.316382 -6.539455 16.031518 0.000000 0.000000 0.000000 6.261203 -51.124704 6.409616 -2.813358 -0.770324 0.547129 14.089260 2.759193 -0.382771 -6.279092 5.342993 -2.240477 0.000000 0.000000 0.000000 -0.771873 5.209288 -2.910722 -2.154814 8.569036 3.529530 0.000000 0.000000 0.000000 0.805932 4.837628 -2.969244 -29.212251 -0.712290 3.688385 33.846661 -23.351828 -41.350799 -4.013143 -45.799294 -0.187772 0.000000 0.000000 0.000000 -1.106948 5.074840 -2.673982 2.726899 8.077999 8.586470 6.768955 15.444219 55.118930 -6.938075 70.116058 7.248090 0.000000 0.000000 0.000000 
-5.554559 84.498383 2.343273 0.000000 0.000000 0.000000 6.661112 -50.568542 6.525087 -46.400982 5.464418 31.196117 44.259257 -8.793486 -10.069674 -8.020954 -6.089757 -6.032088 0.000000 0.000000 0.000000 6.268646 -50.053419 6.009568 -24.391203 -12.438599 -22.345092 54.887527 7.100982 0.004237 -42.966756 -7.665993 15.864204 0.000000 0.000000 0.000000 6.666898 -50.450885 6.566504 -2.543588 -0.477597 0.214141 14.100319 2.282560 0.244010 -6.108527 5.182692 -2.313148 0.000000 0.000000 0.000000 -0.698032 4.931289 -2.932949 -2.331725 8.517730 3.557928 0.000000 0.000000 0.000000 1.039491 4.551919 -3.014092 -29.399142 -1.994961 2.757700 36.059027 -23.951317 -40.642248 -3.879475 -41.587311 0.256608 0.000000 0.000000 0.000000 -0.919593 4.815957 -2.789847 3.805327 7.342138 7.045411 5.569657 17.715769 56.042894 -5.062634 68.534405 4.564974 0.000000 0.000000 0.000000 
